<?xml version="1.0" encoding="UTF-8" standalone="no"?>
<!-- Created with Inkscape (http://www.inkscape.org/) -->

<svg
   width="52.906517mm"
   height="52.906517mm"
   viewBox="0 0 52.906517 52.906515"
   version="1.1"
   id="svg1"
   xml:space="preserve"
   inkscape:version="1.3 (0e150ed6c4, 2023-07-21)"
   sodipodi:docname="logo-bivouac.svg"
   xmlns:inkscape="http://www.inkscape.org/namespaces/inkscape"
   xmlns:sodipodi="http://sodipodi.sourceforge.net/DTD/sodipodi-0.dtd"
   xmlns="http://www.w3.org/2000/svg"
   xmlns:svg="http://www.w3.org/2000/svg"><sodipodi:namedview
     id="namedview1"
     pagecolor="#ffffff"
     bordercolor="#666666"
     borderopacity="1.0"
     inkscape:showpageshadow="2"
     inkscape:pageopacity="0.0"
     inkscape:pagecheckerboard="0"
     inkscape:deskcolor="#d1d1d1"
     inkscape:document-units="mm"
     showgrid="false"
     inkscape:zoom="1.4627806"
     inkscape:cx="169.88194"
     inkscape:cy="100.83536"
     inkscape:window-width="1920"
     inkscape:window-height="1017"
     inkscape:window-x="1912"
     inkscape:window-y="-8"
     inkscape:window-maximized="1"
     inkscape:current-layer="layer1" /><defs
     id="defs1" /><g
     inkscape:label="Calque 1"
     inkscape:groupmode="layer"
     id="layer1"
     transform="translate(-50.645554,-21.614798)"><rect
       style="font-variation-settings:normal;opacity:1;fill:#018055;fill-opacity:1;stroke:none;stroke-width:1;stroke-linecap:round;stroke-linejoin:miter;stroke-miterlimit:4;stroke-dasharray:none;stroke-dashoffset:0;stroke-opacity:1"
       id="rect9"
       width="52.906517"
       height="52.906517"
       x="50.645554"
       y="21.614798" /><path
       id="path2"
       style="color:#000000;fill:#fbd442;fill-opacity:1;stroke:none;-inkscape-stroke:none"
       d="m 77.865015,26.488306 c -3.537113,-0.04945 -7.065272,0.251406 -9.7007,2.964677 -1.451511,1.494381 -1.519081,4.040235 -0.998389,6.406327 0.172244,0.7827 0.413408,1.546332 0.70435,2.260327 -0.101005,0.08387 -0.202011,0.191856 -0.290422,0.333313 -0.281203,0.449927 -0.45762,1.173624 -0.386539,2.45308 0.07324,1.31825 0.52057,2.430546 0.927592,3.439584 0.407019,1.009038 0.768293,1.912795 0.791166,2.830318 0.04783,1.918575 -0.867508,3.993306 -0.814421,6.194971 0.02836,1.176292 0.572617,2.247204 1.064535,3.242179 0.491917,0.994976 0.925525,1.91756 0.925525,2.670121 0,0.805041 -0.337931,2.445113 -0.390674,4.121196 -0.05274,1.676081 0.180583,3.492619 1.507918,4.663798 1.19515,1.054545 2.137564,1.497341 3.126941,1.628841 0.989377,0.1315 1.961458,-0.01137 3.400309,-0.01137 1.477314,-1e-6 2.747904,-0.03032 3.851961,-0.265617 1.104059,-0.235292 2.055616,-0.698266 2.76934,-1.539441 1.369648,-1.614226 1.612998,-3.493007 1.566313,-5.220353 -0.02369,-0.876442 -0.148822,-1.412087 -0.261483,-1.896525 -0.112659,-0.484441 -0.215039,-0.921888 -0.236678,-1.765784 -0.018,-0.702024 0.378992,-1.574869 0.840259,-2.486153 0.461268,-0.911285 0.98592,-1.853269 1.013375,-2.869075 0.04916,-1.818796 -0.63252,-3.832438 -0.63252,-5.123202 0,-0.399072 0.04196,-0.639807 0.08113,-0.787032 0.186955,-0.189891 0.501974,-0.542886 0.821139,-1.084172 0.484341,-0.821414 0.976975,-2.06615 1.044897,-3.749641 0.06778,-1.680041 -0.299839,-3.042321 -0.590144,-4.189926 -0.290307,-1.147602 -0.486777,-2.053811 -0.238229,-2.923335 0.299843,-1.04898 0.60128,-2.41613 0.422197,-3.787366 -0.179085,-1.371236 -0.896143,-2.757275 -2.509925,-3.628719 -2.99306,-1.616259 -4.289109,-1.831811 -7.808825,-1.881022 z m -0.0155,0.999939 c 3.489756,0.04879 4.422642,0.180905 7.349939,1.761649 1.346396,0.727056 1.843505,1.738853 1.992126,2.876827 0.148621,1.137974 -0.108708,2.39114 -0.392741,3.384807 -0.335327,1.173121 -0.06256,2.285312 0.230477,3.443717 0.29304,1.158406 0.623285,2.389029 0.56224,3.902087 -0.06091,1.50961 -0.496102,2.585042 -0.907955,3.283521 -0.133667,0.226691 -0.255024,0.396113 -0.366903,0.541052 -0.130891,0.05921 -0.264187,0.168904 -0.363802,0.318327 -0.02531,0.03796 -0.04438,0.08524 -0.06666,0.127641 -0.30671,-0.270993 -0.688445,-0.528034 -1.34307,-0.559656 -0.521973,-0.02521 -0.942349,0.252462 -1.316716,0.580326 -0.258469,0.226366 -0.497953,0.499195 -0.729154,0.781348 h 2.109949 c 0.276119,-1.26e-4 0.500068,0.223592 0.500228,0.499711 1.26e-4,0.27632 -0.223908,0.500354 -0.500228,0.500228 H 81.74023 c -0.275366,0.386164 -0.300977,0.476741 -0.701249,0.95498 -0.557514,0.772164 -1.383511,1.101514 -2.413806,1.566313 l -0.470772,-0.960148 v 7.466211 c -1.6e-4,0.276119 -0.224109,0.499837 -0.500228,0.499711 -0.275917,-1.59e-4 -0.499552,-0.223794 -0.499711,-0.499711 v -8.115267 c 0.0058,-0.249992 0.195412,-0.457253 0.4439,-0.485242 l -0.936377,-1.909444 -0.0036,-0.0078 c -0.734074,-1.379016 -3.213782,-5.051212 -5.855457,-6.82439 -1.027636,-0.689782 -2.176382,-2.781155 -2.658235,-4.970756 -0.481854,-2.189601 -0.305456,-4.423171 0.736389,-5.495789 2.351284,-2.420729 5.496084,-2.708849 8.968445,-2.660302 z m -7.353557,20.441646 h 5.381067 c 0.275917,1.59e-4 0.499552,0.223794 0.499711,0.499711 1.26e-4,0.276119 -0.223592,0.500068 -0.499711,0.500228 h -5.381067 c -0.276119,-1.6e-4 -0.499837,-0.224109 -0.499711,-0.500228 1.59e-4,-0.275917 0.223794,-0.499552 0.499711,-0.499711 z m 1.275375,10.744047 h 4.293278 c 0.275917,1.59e-4 0.499552,0.223794 0.499711,0.499711 1.26e-4,0.276119 -0.223592,0.500068 -0.499711,0.500228 H 71.77133 c -0.276119,-1.6e-4 -0.499837,-0.224109 -0.499711,-0.500228 1.59e-4,-0.275917 0.223794,-0.499552 0.499711,-0.499711 z m 7.609354,0 h 4.295345 c 0.275917,1.59e-4 0.499553,0.223794 0.499712,0.499711 1.26e-4,0.276119 -0.223593,0.500069 -0.499712,0.500228 h -4.295345 c -0.276119,-1.6e-4 -0.499837,-0.224109 -0.499711,-0.500228 1.59e-4,-0.275917 0.223794,-0.499552 0.499711,-0.499711 z m -1.726509,1.519287 c 0.27632,-1.26e-4 0.500354,0.223908 0.500228,0.500228 v 7.304464 c 1.26e-4,0.27632 -0.223908,0.500354 -0.500228,0.500228 -0.276119,-1.6e-4 -0.499837,-0.224109 -0.499711,-0.500228 v -7.304464 c -1.26e-4,-0.276119 0.223592,-0.500068 0.499711,-0.500228 z"
       sodipodi:nodetypes="ssscssssssssssssssssssscsssssssscssssscscssccccczcccccccccssssccccccccccccccccccccccccccccccc" /><circle
       style="font-variation-settings:normal;opacity:1;fill:#fbd442;fill-opacity:1;stroke:none;stroke-width:1.23068;stroke-linecap:round;stroke-linejoin:miter;stroke-miterlimit:4;stroke-dasharray:none;stroke-dashoffset:0;stroke-opacity:1"
       id="path4"
       cx="77.570953"
       cy="32.294579"
       r="3.2267637" /><path
       id="path5"
       style="color:#000000;fill:#fbd442;fill-opacity:1;stroke:none;-inkscape-stroke:none"
       d="m 77.410262,36.142497 c -1.999642,0 -3.519581,0.298541 -4.634859,0.593762 -1.150638,0.304582 -1.703795,1.03139 -1.804541,1.169954 -0.06861,0.06231 -0.146208,0.171009 -0.166398,0.300757 -0.02101,0.135051 0.01746,0.252039 0.05478,0.322461 0.07464,0.140844 0.134227,0.170494 0.179834,0.203089 0.09122,0.06519 0.158375,0.09322 0.243912,0.130741 0.171076,0.07505 0.394737,0.156476 0.673861,0.250114 0.558248,0.187277 1.328935,0.419554 2.160592,0.664042 1.663315,0.488975 3.58082,1.026714 4.450891,1.30638 0.625996,0.201213 1.718512,0.74376 2.736267,1.431437 v -1.458825 a 0.55000001,0.55000001 0 0 1 0.550871,-0.550354 0.55000001,0.55000001 0 0 1 0.550871,0.550354 v 2.290816 c 0.869537,0.724331 1.523421,1.414384 1.523421,1.414384 l 0.83199,0.713135 -0.0078,-1.097608 c 0,0 -0.03024,-3.998069 0,-4.935616 0.03847,-1.192428 -0.734643,-2.153935 -1.966805,-2.682007 -1.306117,-0.559768 -3.410078,-0.617016 -5.376933,-0.617016 z" /></g></svg>
