<?xml version="1.0" encoding="UTF-8" standalone="no"?>
<!-- Created with Inkscape (http://www.inkscape.org/) -->

<svg
   width="52.816078mm"
   height="52.816078mm"
   viewBox="0 0 52.816078 52.816078"
   version="1.1"
   id="svg1"
   xml:space="preserve"
   xmlns="http://www.w3.org/2000/svg"
   xmlns:svg="http://www.w3.org/2000/svg"
   xmlns:rdf="http://www.w3.org/1999/02/22-rdf-syntax-ns#"
   xmlns:cc="http://creativecommons.org/ns#"
   xmlns:dc="http://purl.org/dc/elements/1.1/"><title
     id="title5">logo-camping</title><defs
     id="defs1" /><g
     id="layer1"
     transform="translate(-110.4117,-69.206551)"><rect
       style="fill:#018055;fill-opacity:1;stroke:none;stroke-width:0;stroke-opacity:1;stroke-dasharray:none"
       id="rect1"
       width="52.816078"
       height="52.816078"
       x="110.4117"
       y="69.206551" /><path
       id="path3-9"
       style="color:#000000;fill:#fed442;fill-opacity:1;stroke:none;stroke-linecap:round;-inkscape-stroke:none"
       d="m 135.2873,77.092665 c -0.19296,-0.006 -0.3842,0.0382 -0.55449,0.12919 -0.53616,0.2858 -0.73908,0.95216 -0.4532,1.48828 l 1.42368,2.66754 -14.26424,26.727055 h -1.49913 c -0.6904,-3e-5 -1.25009,0.55965 -1.25006,1.25005 -3e-5,0.6904 0.55966,1.25009 1.25006,1.25006 h 34.02169 c 0.0728,-4e-5 0.14539,-0.006 0.21704,-0.0191 0.1437,-0.0252 0.28186,-0.0754 0.40825,-0.14831 0.063,-0.0364 0.1226,-0.0783 0.17828,-0.12506 0.11168,-0.0936 0.20612,-0.2061 0.27905,-0.33228 0.0364,-0.0632 0.0672,-0.12939 0.092,-0.19792 0.0499,-0.13697 0.0754,-0.2816 0.0754,-0.42737 -4e-5,-0.0728 -0.006,-0.14539 -0.0191,-0.21704 -0.0252,-0.14369 -0.0754,-0.28186 -0.14831,-0.40824 -0.0364,-0.063 -0.0783,-0.1226 -0.12505,-0.17828 -0.0936,-0.11168 -0.2061,-0.20612 -0.33228,-0.27906 -0.0632,-0.0364 -0.12939,-0.0671 -0.19792,-0.092 -0.13697,-0.0499 -0.2816,-0.0754 -0.42737,-0.0754 h -1.49913 l -14.26425,-26.727055 1.42369,-2.66754 c 0.28588,-0.53612 0.083,-1.20248 -0.4532,-1.48828 -0.17029,-0.091 -0.36153,-0.13553 -0.55449,-0.12919 -0.39255,0.0129 -0.74846,0.23405 -0.9338,0.58033 l -0.72967,1.36736 -0.72967,-1.36736 c -0.18534,-0.34628 -0.54124,-0.56746 -0.93379,-0.58033 z m 1.66346,20.35225 5.00797,10.659815 H 131.9428 Z" /><path
       style="color:#000000;opacity:1;fill:#ef2b2e;fill-opacity:1;stroke:none;stroke-width:0.2;stroke-dasharray:none"
       d="m 117.02796,74.075425 -1.83789,1.83789 41.51172,41.511725 1.83789,-1.83789 z"
       id="path1" /></g><metadata
     id="metadata5"><rdf:RDF><cc:Work
         rdf:about=""><dc:title>logo-camping</dc:title></cc:Work></rdf:RDF></metadata></svg>
