<?xml version="1.0" encoding="UTF-8" standalone="no"?>
<!-- Created with Inkscape (http://www.inkscape.org/) -->

<svg
   width="52.816078mm"
   height="52.816078mm"
   viewBox="0 0 52.816078 52.816078"
   version="1.1"
   id="svg1"
   xml:space="preserve"
   xmlns="http://www.w3.org/2000/svg"
   xmlns:svg="http://www.w3.org/2000/svg"
   xmlns:rdf="http://www.w3.org/1999/02/22-rdf-syntax-ns#"
   xmlns:cc="http://creativecommons.org/ns#"
   xmlns:dc="http://purl.org/dc/elements/1.1/"><title
     id="title5">logo-camping</title><defs
     id="defs1" /><rect
     style="fill:#018055;fill-opacity:1;stroke:none;stroke-width:0;stroke-dasharray:none;stroke-opacity:1"
     id="rect1"
     width="52.816078"
     height="52.816078"
     x="0"
     y="1.7763568e-15" /><path
     id="path3-9"
     style="color:#000000;fill:#fed442;fill-opacity:1;stroke:none;stroke-linecap:round;-inkscape-stroke:none"
     d="M 24.875484 7.8863403 C 24.682524 7.8803403 24.491286 7.9245415 24.320996 8.0155314 C 23.784837 8.3013311 23.581914 8.9676932 23.867794 9.5038127 L 25.291479 12.17135 L 20.194633 21.721672 C 21.915996 22.862065 24.201825 23.858637 26.949259 23.86676 C 29.566983 23.874498 31.652123 23.175176 33.21141 22.336104 L 27.786418 12.17135 L 29.210103 9.5038127 C 29.495983 8.9676932 29.293101 8.3013311 28.756901 8.0155314 C 28.586611 7.9245315 28.395373 7.8800003 28.202413 7.8863403 C 27.809863 7.8992403 27.45396 8.120387 27.26862 8.4666667 L 26.538949 9.8340251 L 25.809277 8.4666667 C 25.623938 8.120387 25.268034 7.8992103 24.875484 7.8863403 z M 33.21141 22.336104 L 34.04495 23.897766 C 35.439489 23.142822 36.483992 22.288721 37.16724 21.64054 L 37.161556 23.433712 C 37.159256 23.903613 37.539146 24.286292 38.009049 24.287923 C 38.479758 24.290223 38.862256 23.909594 38.862744 23.438879 L 38.877214 18.68103 L 34.101794 18.667078 C 33.632697 18.665978 33.251278 19.044958 33.24965 19.514054 C 33.24735 19.983955 33.626723 20.366635 34.096627 20.368266 L 35.915637 20.373433 C 35.338457 20.930297 34.437285 21.676446 33.21141 22.336104 z M 34.04495 23.897766 C 32.250697 24.869098 29.876748 25.676349 26.944092 25.667684 C 23.865876 25.658586 21.299 24.570214 19.349723 23.305037 L 11.027234 38.898401 L 9.5281006 38.898401 C 8.8377013 38.898371 8.2780177 39.458054 8.2780477 40.148454 C 8.2780177 40.838853 8.8377013 41.398537 9.5281006 41.398507 L 43.549797 41.398507 C 43.622596 41.398467 43.695188 41.392486 43.766838 41.379386 C 43.910537 41.354186 44.048692 41.303985 44.175081 41.231075 C 44.238081 41.194675 44.297685 41.152778 44.353365 41.106018 C 44.465045 41.012418 44.559488 40.899918 44.632418 40.773739 C 44.668818 40.710539 44.699602 40.644348 44.724402 40.575818 C 44.774302 40.438848 44.799849 40.294224 44.799849 40.148454 C 44.799809 40.075654 44.793829 40.003063 44.780729 39.931413 C 44.755529 39.787723 44.705328 39.649549 44.632418 39.523169 C 44.596018 39.460169 44.554111 39.400565 44.507361 39.344885 C 44.413761 39.233205 44.301261 39.138772 44.175081 39.065833 C 44.111881 39.029433 44.045691 38.998748 43.977161 38.973848 C 43.840191 38.923949 43.695566 38.898401 43.549797 38.898401 L 42.050663 38.898401 L 34.04495 23.897766 z M 19.349723 23.305037 L 20.194633 21.721672 C 17.875141 20.185021 16.58245 18.386475 16.58245 18.386475 L 15.108639 19.421037 C 15.108639 19.421037 16.624599 21.536297 19.349723 23.305037 z M 26.538949 28.238586 L 31.546912 38.898401 L 21.530986 38.898401 L 26.538949 28.238586 z " /><metadata
     id="metadata5"><rdf:RDF><cc:Work
         rdf:about=""><dc:title>logo-camping</dc:title></cc:Work></rdf:RDF></metadata><text
     xml:space="preserve"
     style="font-style:normal;font-variant:normal;font-weight:bold;font-stretch:normal;font-size:7.76111px;line-height:1.25;font-family:'Microsoft JhengHei UI';-inkscape-font-specification:'Microsoft JhengHei UI Bold';letter-spacing:0.0899583px;fill:#fed442;fill-opacity:1;stroke:none;stroke-width:0.264583"
     x="5.7898259"
     y="15.053548"
     id="text1"><tspan
       id="tspan1"
       style="font-style:normal;font-variant:normal;font-weight:bold;font-stretch:normal;font-size:7.76111px;font-family:'Microsoft JhengHei UI';-inkscape-font-specification:'Microsoft JhengHei UI Bold';letter-spacing:0.0899583px;stroke-width:0.264583;fill:#fed442;fill-opacity:1"
       x="5.7898259"
       y="15.053548">19h       9h</tspan></text></svg>
